<svg xmlns="http://www.w3.org/2000/svg" version="1.1" xmlns:xlink="http://www.w3.org/1999/xlink" xmlns:svgjs="http://svgjs.dev/svgjs" width="1500" height="496" viewBox="0 0 1500 496"><g transform="matrix(1,0,0,1,-0.9090909090909918,0.6049929868455877)"><svg viewBox="0 0 396 131" data-background-color="#c0ff00" preserveAspectRatio="xMidYMid meet" height="496" width="1500" xmlns="http://www.w3.org/2000/svg" xmlns:xlink="http://www.w3.org/1999/xlink"><g id="tight-bounds" transform="matrix(1,0,0,1,0.2400000000000091,-0.15978645418704218)"><svg viewBox="0 0 395.52 131.31957290837406" height="131.31957290837406" width="395.52"><g><svg viewBox="0 0 647.0499398430428 214.83192190174327" height="131.31957290837406" width="395.52"><g transform="matrix(1,0,0,1,0,29.690953026941372)"><svg viewBox="0 0 395.52 155.45001584786053" height="155.45001584786053" width="395.52"><g id="textblocktransform"><svg viewBox="0 0 395.52 155.45001584786053" height="155.45001584786053" width="395.52" id="textblock"><g><svg viewBox="0 0 395.52 155.45001584786053" height="155.45001584786053" width="395.52"><g transform="matrix(1,0,0,1,0,0)"><svg width="395.52" viewBox="2.8 -37.5 126.17999999999999 49.60000000000001" height="155.45001584786053" data-palette-color="#183d24"><path d="M13.45-25Q16.4-25 18.63-23.33 20.85-21.65 22.03-18.75 23.2-15.85 23.2-12.25L23.2-12.25Q23.2-6.65 20.65-3.08 18.1 0.5 13.45 0.5L13.45 0.5Q11.55 0.5 9.93-0.18 8.3-0.85 7.15-2.15L7.15-2.15 7.15 12.1 2.8 12.1 2.8-24.5 6.15-24.5 6.55-21.55Q9.2-25 13.45-25L13.45-25ZM12.65-3.35Q15.5-3.35 17.13-5.7 18.75-8.05 18.75-12.25L18.75-12.25Q18.75-16.4 17.13-18.75 15.5-21.1 12.65-21.1L12.65-21.1Q11.15-21.1 9.75-20.1 8.35-19.1 7.48-17.1 6.6-15.1 6.6-12.25L6.6-12.25Q6.6-9.3 7.48-7.3 8.35-5.3 9.73-4.33 11.1-3.35 12.65-3.35L12.65-3.35ZM27.15 0L27.15-24.5 30.7-24.5 31.25-20.4Q32.9-22.8 34.37-23.9 35.85-25 37.5-25L37.5-25Q38.15-25 38.65-24.85L38.65-24.85 38.2-19.9Q37.55-20.05 36.7-20.05L36.7-20.05Q35.05-20.05 33.6-19.23 32.15-18.4 31.5-17.3L31.5-17.3 31.5 0 27.15 0ZM41.95-30.05L41.95-35 46.3-35 46.3-30.05 41.95-30.05ZM41.95 0L41.95-24.5 46.3-24.5 46.3 0 41.95 0ZM58.34 0.5Q54.04 0.5 50.89-1.5L50.89-1.5 51.44-5.9Q54.64-3.4 58.04-3.4L58.04-3.4Q59.84-3.4 60.87-4.15 61.89-4.9 61.89-6.35L61.89-6.35Q61.89-7.45 61.42-8.15 60.94-8.85 59.84-9.5 58.74-10.15 56.44-11.2L56.44-11.2Q53.74-12.45 52.49-14.05 51.24-15.65 51.24-18.2L51.24-18.2Q51.24-21.2 53.34-23.1 55.44-25 58.99-25L58.99-25Q62.59-25 65.29-23.4L65.29-23.4 64.74-19.35Q63.39-20.25 62.19-20.68 60.99-21.1 59.34-21.1L59.34-21.1Q57.59-21.1 56.59-20.35 55.59-19.6 55.59-18.25L55.59-18.25Q55.59-16.9 56.47-16.2 57.34-15.5 59.89-14.35L59.89-14.35Q63.44-12.75 64.89-11.13 66.34-9.5 66.34-6.85L66.34-6.85Q66.34-3.4 64.19-1.45 62.04 0.5 58.34 0.5L58.34 0.5ZM77.09 0.5Q74.24 0.5 72.87-1.2 71.49-2.9 71.49-5.35L71.49-5.35 71.49-21.05 68.09-21.05 68.49-24.5 71.49-24.5 71.49-30.55 75.84-31 75.84-24.5 81.14-24.5 81.14-21.05 75.84-21.05 75.84-7.1Q75.84-4.85 76.67-3.95 77.49-3.05 79.54-3.05L79.54-3.05 81.09-3.05 80.69 0.5 77.09 0.5ZM85.04-30.05L85.04-35 89.39-35 89.39-30.05 85.04-30.05ZM85.04 0L85.04-24.5 89.39-24.5 89.39 0 85.04 0ZM96.44 0L96.44-21.05 93.04-21.05 93.54-24.5 96.44-24.5 96.44-31.05Q96.44-33.95 98.09-35.73 99.74-37.5 102.79-37.5L102.79-37.5Q104.64-37.5 106.04-36.95L106.04-36.95 105.49-33.2Q104.44-33.55 103.49-33.55L103.49-33.55Q102.19-33.55 101.49-32.73 100.79-31.9 100.79-30.4L100.79-30.4 100.79-24.5 106.19-24.5 106.19-21.05 100.79-21.05 100.79 0 96.44 0ZM111.18 12.1L116.08-1.1 107.13-24.5 111.78-24.5 118.33-6.25 124.33-24.5 128.98-24.5 115.83 12.1 111.18 12.1Z" opacity="1" transform="matrix(1,0,0,1,0,0)" fill="#183d24" class="wordmark-text-0" data-fill-palette-color="primary" id="text-0"></path></svg></g></svg></g></svg></g></svg></g><g transform="matrix(1,0,0,1,432.21801794129954,0)"><svg viewBox="0 0 214.83192190174327 214.83192190174327" height="214.83192190174327" width="214.83192190174327"><g data-palette-color="#183d24"><rect width="58.72072531980982" height="214.83192190174327" fill="#183d24" stroke="transparent" data-fill-palette-color="accent" x="0" fill-opacity="1"></rect><rect width="58.72072531980982" height="214.83192190174327" fill="#183d24" stroke="transparent" data-fill-palette-color="accent" x="71.61064063391441" fill-opacity="0.75"></rect><rect width="58.72072531980982" height="214.83192190174327" fill="#183d24" stroke="transparent" data-fill-palette-color="accent" x="143.22128126782883" fill-opacity="0.5"></rect></g></svg></g></svg></g><defs></defs></svg><rect width="395.52" height="131.31957290837406" fill="none" stroke="none" visibility="hidden"></rect></g></svg></g></svg>